<?xml version="1.0" standalone="no"?>
<!DOCTYPE svg PUBLIC "-//W3C//DTD SVG 20010904//EN"
 "http://www.w3.org/TR/2001/REC-SVG-20010904/DTD/svg10.dtd">
<svg version="1.0" xmlns="http://www.w3.org/2000/svg"
 width="2400.000000pt" height="2400.000000pt" viewBox="0 0 2400.000000 2400.000000"
 preserveAspectRatio="xMidYMid meet">
<metadata>
Created by potrace 1.11, written by Peter Selinger 2001-2013
</metadata>
<g transform="translate(0.000000,2400.000000) scale(0.100000,-0.100000)"
fill="#000000" stroke="none">
<path d="M11620 23451 c-303 -119 -523 -268 -794 -537 -138 -138 -319 -365
-591 -744 -65 -91 -151 -207 -189 -259 -39 -51 -80 -105 -91 -120 -131 -174
-304 -361 -447 -484 -95 -81 -229 -177 -248 -177 -6 0 -29 17 -51 38 -179 166
-467 331 -944 542 -126 56 -255 113 -285 127 -30 13 -82 36 -115 51 -116 51
-401 199 -501 260 -69 42 -115 63 -145 67 -24 3 -64 8 -89 10 -25 3 -58 8 -75
10 -16 3 -48 7 -70 10 -80 11 -120 18 -310 56 -190 39 -173 35 -220 47 -22 6
-51 13 -65 16 -14 3 -45 10 -70 17 -25 6 -52 12 -60 14 -8 2 -112 26 -230 55
-300 72 -561 123 -695 136 -33 3 -66 8 -74 10 -51 17 -426 24 -566 11 -81 -7
-181 -23 -194 -32 -10 -6 -8 -35 16 -165 43 -239 145 -498 289 -732 138 -223
297 -428 683 -878 208 -244 436 -547 523 -697 79 -136 133 -240 168 -319 88
-201 157 -441 176 -613 3 -30 8 -64 10 -75 2 -12 7 -36 10 -55 9 -54 11 -62
38 -156 24 -87 68 -220 86 -260 24 -54 82 -251 100 -339 48 -228 10 -434 -114
-613 l-34 -49 52 -29 c64 -36 144 -115 184 -180 28 -46 69 -140 77 -175 2 -8
10 -44 19 -80 8 -36 18 -90 21 -120 4 -30 8 -66 10 -80 2 -14 7 -56 10 -95 6
-66 20 -164 29 -212 4 -18 -1 -23 -27 -28 -126 -25 -279 -86 -385 -153 -57
-36 -170 -128 -212 -173 -64 -68 -98 -107 -125 -144 -17 -22 -33 -42 -36 -45
-3 -3 -66 -90 -139 -195 -208 -297 -303 -407 -434 -504 -61 -45 -240 -140
-264 -141 -10 0 93 -137 128 -170 3 -3 24 -28 47 -55 l41 -51 -28 -94 c-16
-52 -38 -124 -50 -160 -12 -36 -23 -72 -25 -80 -2 -8 -11 -32 -19 -52 -9 -21
-13 -38 -10 -38 4 0 2 -6 -4 -12 -5 -7 -14 -29 -20 -48 -33 -117 -331 -884
-457 -1175 -7 -16 -32 -77 -55 -135 -65 -159 -120 -293 -130 -315 -5 -11 -48
-117 -95 -235 -47 -118 -90 -224 -95 -235 -17 -40 -90 -235 -153 -410 -212
-587 -348 -1122 -394 -1540 -5 -51 -13 -74 -36 -97 -49 -51 -143 -227 -175
-328 -39 -123 -48 -165 -58 -284 -16 -185 -2 -382 50 -708 43 -264 54 -342 64
-432 9 -93 8 -377 -2 -441 -13 -87 -47 -208 -78 -284 -41 -97 -84 -168 -166
-271 -67 -84 -89 -116 -120 -174 -23 -41 -168 -277 -248 -401 -35 -55 -67
-106 -70 -114 -9 -17 -296 -448 -401 -601 -137 -200 -595 -851 -685 -975 -16
-22 -66 -92 -111 -155 -694 -972 -1097 -1578 -1422 -2135 -32 -55 -66 -113
-76 -130 -49 -82 -112 -205 -241 -463 l-140 -282 27 -36 c140 -183 381 -307
678 -349 80 -12 106 -15 152 -20 28 -2 70 -7 95 -10 25 -2 70 -7 100 -10 30
-3 73 -8 95 -11 22 -3 58 -7 80 -10 80 -10 211 -36 248 -50 20 -7 37 -11 37
-7 0 4 5 2 12 -5 7 -7 19 -12 27 -12 45 0 213 -104 293 -180 21 -20 67 -35
225 -75 109 -27 203 -50 208 -51 8 -1 221 -50 370 -84 22 -5 56 -12 75 -15 19
-3 73 -15 120 -25 47 -10 99 -21 115 -24 17 -3 39 -8 50 -10 11 -2 58 -11 105
-20 47 -9 96 -18 110 -21 25 -5 230 -42 285 -51 17 -3 41 -7 55 -10 14 -2 43
-7 65 -10 22 -2 51 -7 65 -10 33 -8 162 -28 305 -49 22 -4 81 -12 130 -20 50
-8 113 -17 140 -20 28 -4 57 -8 65 -10 8 -3 42 -7 74 -11 33 -3 67 -7 75 -9
32 -6 97 -15 136 -20 114 -14 213 -26 235 -30 14 -2 50 -6 80 -10 30 -3 73 -8
95 -11 40 -5 52 -7 130 -18 22 -3 63 -9 90 -12 28 -3 61 -7 75 -9 14 -2 48 -6
75 -9 99 -11 230 -27 255 -31 14 -2 52 -6 85 -10 33 -3 67 -7 75 -10 8 -2 47
-6 85 -10 39 -3 77 -8 85 -10 8 -2 38 -6 65 -9 79 -8 144 -16 225 -26 41 -5
98 -12 125 -15 68 -8 97 -12 185 -24 41 -5 102 -13 135 -16 32 -4 62 -8 65
-10 3 -1 34 -6 70 -9 36 -4 112 -13 170 -22 58 -8 123 -17 145 -20 22 -2 51
-7 65 -9 74 -13 262 -30 430 -40 384 -22 385 -23 560 -30 267 -12 307 -13 625
-21 561 -13 1848 -8 2595 11 63 2 259 6 435 10 176 3 401 8 500 10 792 19
1158 20 2870 12 309 -2 548 5 640 17 17 2 66 7 110 11 103 8 161 14 280 30 17
2 55 7 85 10 30 3 80 10 110 15 30 5 73 12 95 15 22 3 108 17 190 31 83 14
164 27 180 30 60 9 355 67 565 110 118 25 260 54 315 66 55 11 118 24 140 29
62 13 576 117 610 123 87 17 305 56 335 61 19 3 71 12 115 20 44 8 100 17 125
20 25 3 56 8 70 10 14 2 45 7 70 10 25 3 72 10 105 15 33 5 89 12 125 15 36 3
76 8 90 10 24 4 85 9 230 21 217 17 510 21 885 13 126 -3 133 -2 240 33 139
46 256 93 387 157 143 70 199 101 553 312 387 229 694 361 823 354 76 -4 113
-40 177 -166 68 -136 88 -162 140 -188 l40 -19 200 33 c285 47 383 72 515 132
36 17 77 33 92 37 39 9 95 69 107 113 22 79 5 276 -28 317 -5 6 -43 79 -86
161 -42 83 -102 200 -134 260 -31 61 -101 196 -155 300 -55 105 -113 217 -131
250 -18 33 -63 119 -100 190 -37 72 -80 153 -95 180 -15 28 -53 97 -83 155
-30 58 -72 139 -94 180 -22 41 -66 125 -98 185 -31 61 -70 133 -85 160 -15 28
-51 95 -80 150 -30 55 -75 140 -102 189 -26 49 -48 90 -48 92 0 1 -39 74 -86
161 -48 87 -106 194 -129 238 -63 119 -114 214 -145 270 -33 60 -72 132 -130
240 -82 153 -339 628 -387 715 -14 25 -69 126 -123 225 -54 99 -114 209 -134
243 -20 35 -36 65 -36 67 0 2 -61 114 -135 250 -74 135 -135 248 -135 249 0 2
-22 42 -50 90 -27 48 -50 89 -50 92 0 3 -9 19 -21 35 -11 16 -17 29 -13 29 3
0 2 6 -4 13 -12 15 -131 231 -554 1007 -17 30 -38 69 -48 85 -10 17 -35 64
-57 105 -60 113 -383 702 -398 726 -11 16 -24 22 -56 22 -134 2 -269 73 -470
246 -19 17 -46 40 -60 51 -46 39 -131 86 -184 103 -46 14 -55 21 -56 42 0 14
-2 36 -4 50 -1 14 -6 62 -9 107 -4 45 -8 90 -10 100 -2 10 -7 56 -11 103 -4
47 -9 87 -10 90 -2 3 -6 34 -9 70 -4 36 -9 76 -11 90 -3 14 -7 45 -10 69 -3
23 -7 55 -10 70 -2 14 -7 46 -10 71 -9 66 -11 81 -19 130 -4 25 -10 59 -12 75
-3 17 -7 37 -9 45 -2 8 -6 33 -10 55 -10 75 -16 110 -25 155 -5 25 -12 59 -14
75 -9 53 -46 258 -56 310 -6 28 -12 61 -15 75 -20 101 -41 204 -80 395 -25
121 -48 229 -50 240 -11 50 -26 124 -31 151 -3 16 -7 37 -10 46 -5 17 -11 43
-20 93 -3 17 -19 93 -35 170 -17 77 -32 151 -35 165 -4 20 -38 180 -48 225 -1
6 -8 42 -16 81 l-13 72 -48 5 c-84 10 -149 51 -256 160 -141 144 -150 152
-197 175 -35 18 -45 30 -56 64 -26 88 -75 207 -141 344 -161 335 -383 641
-783 1078 -44 49 -92 101 -106 116 -27 30 -52 57 -176 195 -279 311 -462 563
-610 840 l-32 60 33 65 c86 171 187 473 229 682 3 13 14 66 24 118 11 52 23
115 27 140 3 25 8 52 10 60 2 8 7 33 10 55 3 22 12 83 20 135 8 52 26 172 40
265 14 94 33 208 41 255 9 46 18 96 19 110 4 22 10 56 30 150 4 23 7 36 21
100 3 14 7 36 10 50 3 14 8 34 11 45 4 11 8 25 9 30 6 34 50 186 80 280 65
197 176 445 257 572 15 24 27 46 27 50 0 5 13 22 28 38 39 43 149 187 213 280
203 294 368 618 581 1135 17 41 37 89 44 107 8 17 14 34 14 37 0 3 9 28 21 54
11 26 26 61 34 77 7 17 43 102 80 190 88 207 196 426 303 615 31 54 151 236
199 303 33 45 34 50 22 80 -52 133 -134 259 -226 352 -99 98 -182 151 -302
190 -49 16 -70 28 -105 61 -28 26 -106 64 -161 78 -145 38 -230 17 -535 -136
-302 -152 -335 -163 -510 -172 -89 -5 -110 -7 -200 -21 -189 -27 -410 -120
-630 -263 -95 -62 -353 -263 -441 -344 -19 -18 -68 -62 -109 -98 -40 -36 -80
-72 -89 -81 -15 -15 -106 -97 -181 -163 -238 -210 -448 -360 -636 -454 -176
-89 -171 -88 -334 -56 -91 18 -270 76 -307 100 -12 8 -27 14 -32 14 -6 0 -52
25 -103 56 -184 112 -332 241 -567 494 -150 162 -448 460 -500 501 -24 19 -48
39 -55 45 -22 21 -202 139 -236 155 -19 9 -56 24 -81 33 -25 9 -60 27 -79 41
-31 23 -109 121 -110 138 0 4 -29 67 -64 140 -92 190 -160 252 -288 261 -43 3
-70 -3 -148 -33z"/>
</g>
</svg>
